<svg width="81" height="32" viewBox="0 0 81 32" fill="none" xmlns="http://www.w3.org/2000/svg">
<path d="M26.5482 24.352C25.7634 28.9298 21.5369 31.9999 16.631 32C13.6871 31.9999 11.3556 31.2516 9.72967 30.2878C9.67187 30.2535 9.61415 30.2192 9.5565 30.1851C8.82727 29.7532 8.1161 29.3321 7.57869 28.9569C6.95544 28.5218 6.11911 28.1523 5.38983 28.1829C5.03077 28.1981 4.70164 28.3099 4.43044 28.5545C4.15793 28.8005 3.9287 29.194 3.79554 29.7982L3.70227 30.2219L3.48173 29.8481C2.9704 28.982 2.88474 28.1782 3.07077 27.5029C3.25593 26.8313 3.70538 26.3033 4.23467 25.976L4.2388 25.9736L4.24269 25.9717L4.34713 25.9164C5.42568 25.3691 6.5092 25.4846 7.56364 25.9751C8.15632 26.2508 8.70628 26.622 9.23953 26.992C9.29078 27.0276 9.34184 27.0632 9.39279 27.0986C9.87593 27.4348 10.3481 27.7633 10.8428 28.0264C12.2747 28.7879 14.1737 29.3631 16.631 29.3631C18.1413 29.3631 20.3837 29.0258 22.28 28.0981C24.1817 27.1677 25.933 25.7498 26.5482 24.352ZM27.5724 10.2191C28.9382 10.9002 30.8902 12.9435 31.0515 15.0633C31.1321 16.1239 30.9844 17.2629 30.3813 18.2719C29.7641 19.3044 28.7478 20.0699 27.347 20.4899C25.2804 21.1094 23.0742 20.7057 20.9844 19.9964C19.2209 19.3978 17.3786 18.5211 15.6038 17.6767C15.2725 17.519 14.9434 17.3625 14.6177 17.2091C12.4957 16.2097 10.493 15.3317 8.62868 14.9233C6.78673 14.5198 5.21966 14.6059 3.8701 15.3775C1.45167 16.7604 2.13444 20.0951 3.67094 22.3087C2.13446 21.6276 0.405867 20.5813 0.0733473 18.4925C-0.0767961 17.549 -0.0102598 16.5461 0.402212 15.6023C0.819409 14.6479 1.55688 13.8319 2.61318 13.2278C4.69825 12.0355 6.97313 12.0172 9.17177 12.4989C11.3482 12.9757 13.5862 13.9729 15.6971 14.9671C16.0437 15.1304 16.3867 15.2936 16.7262 15.455C18.5052 16.3007 20.1891 17.1012 21.7995 17.6478C23.6982 18.2923 25.2473 18.2264 26.572 17.8293C29.8055 16.8598 28.7326 12.2564 27.5724 10.2191ZM67.5746 9.5357C68.6944 9.5357 69.9115 9.85958 70.9094 10.3201V12.3613C69.8817 11.7885 68.6002 11.3947 67.5404 11.3947C66.959 11.3947 66.503 11.5142 66.1724 11.753C65.8533 11.9918 65.6935 12.3272 65.6935 12.7593C65.6935 13.0207 65.7449 13.2482 65.8475 13.4414C65.9615 13.6233 66.1154 13.7883 66.3092 13.9361C66.5144 14.0839 66.7482 14.2205 67.0104 14.3455C67.284 14.4706 67.5804 14.5899 67.8996 14.7036C68.4582 14.9082 68.9541 15.1186 69.3872 15.3346C69.8318 15.5393 70.2025 15.7895 70.4989 16.0851C70.8067 16.3693 71.0403 16.7106 71.1999 17.1086C71.3594 17.4951 71.4394 17.967 71.4394 18.524C71.4393 19.5928 71.0575 20.4231 70.2937 21.0143C69.5413 21.5942 68.4354 21.9695 66.9761 21.9695C65.7068 21.9695 64.3042 21.7608 63.1969 21.1166V18.9562C64.3723 19.6075 65.6269 20.025 66.9761 20.025C67.7513 20.025 68.3156 19.8943 68.669 19.6328C69.0224 19.3713 69.1992 19.0016 69.1993 18.524C69.1992 18.2398 69.1364 17.9954 69.011 17.7908C68.897 17.5861 68.726 17.4041 68.498 17.245C68.2815 17.0744 68.0135 16.9209 67.6944 16.7845C67.3752 16.6367 67.0103 16.4945 66.5999 16.3581C66.1895 16.2103 65.7903 16.0509 65.4027 15.8804C65.0266 15.6985 64.6902 15.4767 64.3938 15.2152C64.1089 14.9537 63.8752 14.641 63.6928 14.2772C63.5219 13.9134 63.4364 13.4756 63.4364 12.964C63.4364 11.8952 63.8068 11.0594 64.5478 10.4567C65.2888 9.84271 66.2978 9.5357 67.5746 9.5357ZM77.1352 9.5357C78.255 9.5357 79.4721 9.85958 80.47 10.3201V12.3613C79.4423 11.7885 78.1611 11.3947 77.1012 11.3947C76.5198 11.3947 76.0637 11.5142 75.7331 11.753C75.4139 11.9918 75.2543 12.3272 75.2543 12.7593C75.2544 13.0207 75.3055 13.2482 75.4081 13.4414C75.5221 13.6233 75.676 13.7883 75.8698 13.9361C76.075 14.0839 76.3088 14.2204 76.571 14.3455C76.8446 14.4706 77.1411 14.5899 77.4602 14.7036C78.0188 14.9082 78.5149 15.1186 78.9481 15.3346C79.3927 15.5393 79.7632 15.7895 80.0596 16.0851C80.3673 16.3693 80.6012 16.7106 80.7608 17.1086C80.9203 17.4951 81 17.967 81 18.524C81 19.5928 80.6181 20.4231 79.8543 21.0143C79.1019 21.5942 77.996 21.9695 76.5368 21.9695C75.2675 21.9695 73.8648 21.7608 72.7575 21.1166V18.9562C73.933 19.6075 75.1875 20.025 76.5368 20.025C77.3119 20.025 77.8762 19.8943 78.2297 19.6328C78.5831 19.3713 78.7599 19.0016 78.7599 18.524C78.7599 18.2399 78.6972 17.9954 78.5719 17.7908C78.4579 17.5861 78.2867 17.4042 78.0587 17.245C77.8421 17.0744 77.5742 16.9209 77.255 16.7845C76.9358 16.6367 76.5709 16.4945 76.1605 16.3581C75.7502 16.2103 75.3512 16.0509 74.9636 15.8804C74.5874 15.6985 74.2511 15.4767 73.9547 15.2152C73.6697 14.9537 73.4359 14.641 73.2535 14.2772C73.0825 13.9134 72.997 13.4756 72.997 12.964C72.997 11.8952 73.3675 11.0594 74.1084 10.4567C74.8494 9.84272 75.8584 9.53571 77.1352 9.5357ZM42.4459 14.533H47.5933V9.80847H49.7479V21.6282H47.5933V16.392H42.4459V21.6282H40.2912V9.80847H42.4459V14.533ZM54.1417 14.533H59.2891V9.80847H61.4437V21.6282H59.2891V16.392H54.1417V21.6282H51.9871V9.80847H54.1417V14.533ZM24.3593 2.1474C24.3807 4.38637 26.218 6.18423 28.4628 6.16289C26.2179 6.18429 24.4153 8.01668 24.4368 10.2557C24.4153 8.01665 22.5781 6.2188 20.3332 6.24017C22.5781 6.2188 24.3807 4.38639 24.3593 2.1474ZM13.1779 0.250124C17.1166 -0.470013 20.0947 0.479157 22.0942 1.64523C22.1843 1.69781 22.2744 1.75133 22.364 1.80535C22.052 2.85468 21.325 3.73206 20.3646 4.23848C18.8033 3.36626 16.6406 2.64816 13.7953 2.96693C9.33629 3.4665 5.89041 5.80448 4.01243 8.18832C4.52468 5.80441 7.42703 1.30164 13.1779 0.250124Z" fill="#1B1F44"/>
</svg>
